{"title":"Sanctum 2010 TS XviD-IMAGINE","uid":6158511,"size":1502117368,"categoryP":"video","categoryS":"movies","magnet":"?xt=urn:btih:db68f0e03d183c30572842c6c375d93b8fae1744&amp;dn=Sanctum+2010+TS+XviD-IMAGINE&amp;tr=udp%3A%2F%2Ftracker.openbittorrent.com%3A80&amp;tr=udp%3A%2F%2Fopen.demonii.com%3A1337&amp;tr=udp%3A%2F%2Ftracker.coppersurfer.tk%3A6969&amp;tr=udp%3A%2F%2Fexodus.desync.com%3A6969","seeders":1,"leechers":0,"uploader":"TheCloon","files":-1,"time":1297125145,"description":"                           Another Fine Release Brought to you from - IMAGiNE                   \n                                                 \n\n********************************************************************************************************************                                \n                                Sanctum 2010 TS XviD - IMAGINE\n********************************************************************************************************************\n\nRipper ...........:IMAGiNE                                         IMDB Rating.......:5.6/10                             \nVideo Codec.......:XVID                                            Release Date......:07/02/11\nAudio Codec.......:MP3                                             Theatre Date......:04/02/11\nAudio Bitrate.....:128                                             Runtime...........:1h 38mn\nSubtitles.........:NIL                                             Language..........:ENGLISH\nResolution........:720 x 384                                       IMDb URL..........:http://www.imdb.com/title/tt0881320/\n[color=yellow]DETAILS:[/color]\n\nVideo\nID                               : 0\nFormat                           : MPEG-4 Visual\nFormat profile                   : Advanced Simple@L5\nFormat settings, BVOP            : Yes\nFormat settings, QPel            : No\nFormat settings, GMC             : No warppoints\nFormat settings, Matrix          : Default (MPEG)\nMuxing mode                      : Packed bitstream\nCodec ID                         : XVID\nCodec ID/Hint                    : XviD\nDuration                         : 1h 38mn\nBit rate                         : 1 864 Kbps\nWidth                            : 720 pixels\nHeight                           : 384 pixels\nDisplay aspect ratio             : 1.875\nFrame rate                       : 25.000 fps\nColor space                      : YUV\nChroma subsampling               : 4:2:0\nBit depth                        : 8 bits\nScan type                        : Progressive\nBits/(Pixel*Frame)               : 0.270\nStream size                      : 1.28 GiB (93%)\nWriting library                  : XviD 61\n\nAudio\nID                               : 1\nFormat                           : MPEG Audio\nFormat version                   : Version 1\nFormat profile                   : Layer 3\nCodec ID                         : 55\nCodec ID/Hint                    : MP3\nDuration                         : 1h 38mn\nBit rate mode                    : Constant\nBit rate                         : 128 Kbps\nChannel(s)                       : 2 channels\nSampling rate                    : 44.1 KHz\nStream size                      : 90.2 MiB (6%)\nAlignment                        : Split accross interleaves\nInterleave, duration             : 40 ms (1.00 video frame)\nInterleave, preload duration     : 500 ms\n\n\n[color=yellow]SOURCES:[/color]\n\nVIDEO: ELEKTRI4KA... Thanks \nAUDIO: Thanks matey... Thanks\n\n[color=yellow]NOTES:[/color]\n\nIMAGiNE bringing you another release.......... Sanctum 2010\n\nHere we are with ok cam of this movie for you all.video isn't nothing special and \ntheres at least 10 mins missing however only video out at the mo . we do \nhave full audio so we shall do a V2 when a better video becomes available work done.....\nmade a small script to brighten it up and alter the contrast....also changed the rgb colours \nand added some sharpeness.With the audio it was a pain to sync but we got there now it was just \na case of muxing the audio back to our encode...\n\nScreens:\n\n\n[color=yellow]GREETS:[/color]\n\nFLAWL3SS,ViSiON,FUSiON,Rx,SecretMyth,BirdFlu,ELEKTRI4KA,SERENiTY and Autotron\nAnd to all the other p2p grps past and present \n\n\n\n","torrent":{"xt":"urn:btih:db68f0e03d183c30572842c6c375d93b8fae1744","amp;dn":"Sanctum+2010+TS+XviD-IMAGINE","amp;tr":["udp%3A%2F%2Ftracker.openbittorrent.com%3A80","udp%3A%2F%2Fopen.demonii.com%3A1337","udp%3A%2F%2Ftracker.coppersurfer.tk%3A6969","udp%3A%2F%2Fexodus.desync.com%3A6969"],"infoHash":"db68f0e03d183c30572842c6c375d93b8fae1744","infoHashBuffer":{"type":"Buffer","data":[219,104,240,224,61,24,60,48,87,40,66,198,195,117,217,59,143,174,23,68]},"announce":[],"urlList":[]}}